<?xml version="1.0" standalone="no"?>
<!DOCTYPE svg PUBLIC "-//W3C//DTD SVG 20010904//EN"
 "http://www.w3.org/TR/2001/REC-SVG-20010904/DTD/svg10.dtd">
<svg version="1.0" xmlns="http://www.w3.org/2000/svg"
 width="703.000000pt" height="703.000000pt" viewBox="0 0 703.000000 703.000000"
 preserveAspectRatio="xMidYMid meet">
<metadata>
Created by potrace 1.11, written by Peter Selinger 2001-2013
</metadata>
<g transform="translate(0.000000,703.000000) scale(0.100000,-0.100000)"
fill="#000000" stroke="none">
<path d="M6420 6509 c-47 -16 -115 -41 -152 -54 -37 -13 -104 -42 -150 -65
-91 -46 -201 -85 -263 -93 -29 -4 -49 -15 -72 -41 -37 -40 -116 -87 -178 -106
-22 -7 -49 -20 -60 -30 -11 -9 -45 -31 -76 -48 -31 -17 -87 -53 -124 -81 -44
-33 -78 -51 -96 -51 -21 0 -36 -10 -59 -38 -23 -29 -47 -44 -96 -61 -44 -16
-76 -36 -101 -62 -20 -21 -59 -50 -87 -64 -28 -14 -69 -41 -91 -60 -22 -19
-45 -35 -51 -35 -6 0 -29 -13 -50 -28 -21 -16 -73 -45 -114 -66 -41 -21 -94
-55 -116 -76 -23 -21 -77 -55 -120 -76 -44 -20 -91 -45 -105 -55 -14 -10 -48
-26 -75 -35 -27 -9 -56 -22 -64 -30 -22 -19 -184 -94 -204 -94 -9 0 -33 -16
-55 -35 -43 -39 -97 -65 -136 -65 -14 0 -41 -14 -63 -34 -21 -19 -68 -49 -105
-66 -37 -18 -86 -52 -109 -76 -24 -24 -50 -44 -58 -44 -22 0 -167 -63 -279
-120 -53 -27 -118 -54 -146 -60 -28 -6 -78 -30 -115 -54 -40 -27 -99 -54 -151
-70 -69 -21 -93 -33 -118 -61 -18 -21 -52 -43 -86 -56 -30 -11 -57 -25 -61
-30 -3 -5 -26 -20 -52 -33 -26 -13 -56 -33 -67 -43 -51 -47 -91 -67 -149 -74
-60 -7 -162 -52 -285 -126 -30 -18 -70 -36 -90 -39 -59 -11 -135 -51 -156 -84
-19 -29 -104 -80 -133 -80 -8 0 -65 -25 -127 -55 -63 -30 -126 -55 -140 -55
-14 0 -43 -9 -65 -20 -22 -11 -45 -20 -53 -20 -7 0 -27 -10 -45 -23 -17 -13
-59 -32 -94 -42 -50 -16 -74 -31 -125 -80 -46 -45 -63 -68 -63 -87 0 -26 -1
-26 -27 -12 -38 19 -66 18 -118 -6 -25 -11 -85 -24 -140 -30 -77 -8 -109 -17
-165 -45 -90 -45 -104 -67 -98 -148 6 -71 32 -128 78 -172 27 -26 39 -30 103
-33 40 -2 129 1 199 6 119 9 129 12 185 45 32 19 75 40 95 47 39 12 113 78
123 110 7 21 17 25 85 35 25 4 56 13 70 20 26 13 206 59 272 70 24 4 68 29
124 71 48 35 99 67 113 71 14 3 57 21 95 40 88 44 102 47 121 20 26 -37 3
-241 -34 -301 -24 -38 -47 -129 -56 -216 -4 -36 -13 -94 -21 -130 -7 -36 -20
-117 -29 -180 -9 -63 -24 -158 -35 -211 -11 -54 -20 -123 -20 -156 0 -44 -7
-70 -26 -108 -25 -45 -26 -53 -15 -92 28 -107 3 -340 -48 -440 -27 -55 -37
-65 -81 -84 -29 -13 -63 -37 -80 -59 -28 -35 -49 -46 -185 -97 -56 -20 -144
-83 -160 -113 -7 -14 -18 -44 -24 -67 -9 -34 -17 -43 -42 -48 -16 -4 -50 -23
-74 -43 -24 -21 -61 -51 -82 -69 -22 -17 -53 -56 -69 -87 -28 -54 -29 -55 -72
-54 -48 1 -77 -19 -87 -61 -4 -15 -25 -40 -53 -61 -26 -19 -62 -52 -81 -73
-19 -21 -51 -49 -72 -63 -21 -13 -66 -54 -101 -90 -35 -37 -75 -79 -89 -94
-18 -17 -24 -31 -19 -41 14 -26 69 -193 75 -229 11 -64 15 -71 38 -65 41 12
72 41 95 88 20 43 26 47 58 47 45 0 87 22 102 54 6 14 24 33 39 42 15 9 57 47
93 84 51 52 75 69 111 78 56 14 81 40 83 89 4 61 13 75 77 122 33 24 71 60 83
80 18 29 31 37 57 39 21 2 49 16 77 40 24 20 65 51 91 68 26 17 55 44 66 60
10 16 28 38 39 49 34 33 120 135 133 159 7 11 13 41 13 66 1 38 3 42 11 22 12
-32 15 -187 5 -367 -7 -135 -6 -153 11 -185 40 -75 205 -115 296 -71 60 29 76
64 75 166 0 44 3 134 6 200 4 66 8 210 8 321 l0 201 29 34 c16 19 34 48 39 64
12 33 92 103 128 110 12 3 32 7 45 10 12 2 52 33 87 67 36 35 85 79 110 98 58
44 198 188 205 211 3 9 29 29 58 43 29 15 63 41 77 61 14 20 50 54 80 75 75
54 80 58 124 113 21 26 44 47 52 47 7 0 31 17 54 38 34 33 40 45 40 80 0 31 4
42 15 42 50 0 115 78 115 138 0 25 7 30 56 38 20 3 47 10 60 14 26 10 114 137
114 166 0 29 11 40 55 54 22 7 56 24 75 39 19 15 49 35 65 45 38 24 70 53 104
91 14 16 53 54 85 85 33 30 81 75 106 100 26 25 61 53 78 62 26 14 35 28 48
77 15 53 21 61 46 67 16 3 46 24 66 45 23 25 72 57 129 84 97 47 102 54 108
127 4 50 20 66 115 114 76 38 100 59 355 324 39 40 93 90 120 110 28 21 86 73
130 117 44 43 106 98 137 122 74 55 201 185 241 247 23 33 49 57 89 78 39 21
64 43 78 69 14 24 38 46 68 61 26 13 64 45 85 70 21 25 55 55 76 65 48 25 138
106 156 142 10 19 27 32 53 39 39 10 66 33 86 71 6 12 35 35 65 50 78 42 138
95 173 151 19 30 45 56 69 68 30 16 41 29 50 61 10 33 21 45 58 64 59 30 139
109 162 160 36 78 22 135 -49 209 -92 95 -188 110 -342 55z m-320 -544 c0 -2
-10 -9 -22 -15 -22 -11 -22 -10 -4 4 21 17 26 19 26 11z m-129 -94 c-32 -62
-69 -99 -142 -142 -38 -23 -81 -56 -95 -73 -15 -17 -48 -42 -74 -56 -70 -36
-126 -78 -192 -141 -32 -30 -77 -71 -99 -90 -23 -19 -56 -55 -73 -81 -18 -27
-65 -70 -109 -102 -42 -30 -89 -67 -103 -82 -15 -14 -47 -34 -71 -45 -46 -20
-73 -41 -73 -57 0 -12 -71 -82 -83 -82 -9 0 -138 -92 -163 -115 -7 -6 -21 -29
-32 -51 -11 -21 -33 -47 -49 -56 -16 -9 -52 -40 -79 -69 -27 -28 -63 -57 -80
-65 -47 -20 -100 -74 -128 -130 -14 -27 -42 -62 -63 -79 -21 -16 -76 -66 -124
-110 -47 -44 -105 -92 -128 -108 -28 -18 -48 -42 -60 -71 -16 -35 -28 -46 -67
-64 -78 -33 -125 -74 -153 -133 -26 -54 -34 -60 -119 -95 -52 -21 -86 -63
-102 -124 -11 -43 -59 -110 -79 -110 -28 0 -62 -27 -80 -64 -38 -76 -57 -90
-139 -101 -63 -8 -108 -42 -117 -88 -9 -39 -28 -62 -78 -94 -39 -25 -76 -88
-77 -130 0 -19 -7 -22 -55 -28 -58 -8 -100 -32 -110 -65 -4 -11 -24 -29 -46
-40 -33 -17 -41 -28 -51 -66 -10 -37 -20 -50 -48 -64 -48 -25 -70 -47 -107
-105 -18 -28 -48 -58 -67 -69 -20 -11 -36 -23 -36 -27 0 -5 -19 -21 -42 -35
-60 -37 -86 -70 -103 -129 -14 -45 -26 -61 -100 -125 -47 -41 -87 -82 -91 -92
-13 -41 -24 -13 -24 63 0 60 7 100 26 157 14 42 27 102 29 132 7 97 17 153 36
209 11 30 19 73 19 96 0 24 11 82 25 129 14 47 25 99 25 114 0 15 7 48 15 74
7 26 12 59 9 74 -3 14 2 48 11 75 13 38 16 80 13 193 -3 159 -12 184 -74 216
-73 38 -72 36 -18 60 27 12 75 28 107 37 32 8 107 40 165 70 59 30 129 67 156
80 28 14 64 35 80 48 17 13 67 41 111 63 44 22 101 59 127 81 26 24 75 52 113
66 36 14 92 38 123 54 31 15 80 36 107 47 28 10 76 35 107 57 31 21 99 56 149
78 51 21 102 45 113 52 49 32 135 75 181 92 28 10 66 30 85 44 19 15 48 35 65
46 16 10 41 29 55 43 14 13 59 40 100 59 41 18 107 49 145 68 98 47 225 102
255 109 14 3 64 26 112 51 61 32 93 55 105 77 11 19 37 40 68 54 91 43 155 82
209 128 29 25 56 46 59 46 3 0 25 13 49 28 74 49 169 96 226 112 22 6 58 25
79 43 22 18 57 40 79 50 23 11 53 38 74 68 19 26 49 54 65 61 17 7 56 28 89
48 32 19 102 58 155 86 53 28 97 52 99 53 1 0 -6 -16 -17 -38z"/>
</g>
</svg>
